<svg width="281" height="182" viewBox="0 0 281 182" fill="none" xmlns="http://www.w3.org/2000/svg">
<path fill-rule="evenodd" clip-rule="evenodd" d="M187.172 1.79445C183.182 3.98145 179.225 10.1805 179.2 14.2835C179.16 21.1165 185.07 28.3284 191.738 29.5814C196.6 30.4944 201.801 28.2794 205.478 23.7294C212.754 14.7264 206.871 1.55646 195.025 0.330457C191.942 0.0124573 189.645 0.440447 187.172 1.79445ZM8.82703 39.3754C2.1637 42.3994 -1.47103 52.3944 1.79423 58.7164C4.65408 64.2564 8.94985 67.0014 14.7494 66.9975C21.5955 66.9925 25.9432 64.3015 28.5165 58.4775C31.1556 52.5015 30.2479 47.8335 25.4429 42.6744C22.3155 39.3164 21.0633 38.6865 16.8544 38.3565C13.9386 38.1275 10.6614 38.5434 8.82703 39.3754ZM43.279 40.2714C34.5657 46.1004 34.1633 57.4225 42.4233 64.3825C48.5923 69.5815 60.1545 67.1595 63.9131 59.8825C66.3036 55.2525 65.4639 46.8214 62.2705 43.3984C56.8274 37.5634 49.2024 36.3084 43.279 40.2714ZM79.5694 39.9964C70.1031 45.7754 69.9084 60.6234 79.2349 65.4524C80.8795 66.3044 84.5112 67.0014 87.3061 67.0014C91.8196 67.0014 92.8471 66.5725 96.4968 63.1625C100.156 59.7435 100.651 58.7315 101.007 53.9125C101.319 49.7035 100.954 47.7774 99.3646 45.2424C96.6116 40.8524 91.6798 38.0084 86.8178 38.0084C84.5901 38.0084 81.3847 38.8874 79.5694 39.9964ZM117.24 38.8215C111.61 41.3205 108.131 46.3875 108.043 52.2135C107.907 61.1814 113.761 66.9915 122.938 66.9975C128.738 67.0014 133.034 64.2564 135.894 58.7164C137.872 54.8854 137.212 47.7934 134.538 44.1374C130.945 39.2264 122.308 36.5725 117.24 38.8215ZM153.221 38.7674C148.765 40.9504 146.161 43.6214 144.666 47.5394C142.266 53.8324 143.393 58.5094 148.473 63.3494C152.466 67.1524 152.634 67.2084 158.995 66.8024C164.913 66.4254 165.739 66.0844 168.766 62.7764C170.585 60.7894 172.379 57.5324 172.752 55.5384C173.669 50.6434 170.932 43.6614 166.996 40.8554C163.859 38.6185 155.968 37.4224 153.221 38.7674ZM186.477 39.8984C177.707 45.4174 176.884 57.0165 184.772 63.9515C190.888 69.3295 201.295 67.8234 206.258 60.8424C210.549 54.8064 208.734 45.3024 202.385 40.5684C198.553 37.7104 190.493 37.3714 186.477 39.8984ZM223.14 39.7535C213.403 44.6515 212.412 57.0075 221.164 64.3825C227.325 69.5745 238.895 67.1604 242.643 59.9024C249.271 47.0664 235.951 33.3065 223.14 39.7535ZM7.3312 78.2714C-4.96296 86.4964 0.63691 104.994 15.4215 104.994C23.7464 104.994 29.7237 98.9364 29.7237 90.5014C29.7237 78.8954 16.8823 71.8814 7.3312 78.2714ZM43.6215 77.9964C27.7386 87.6934 40.4901 110.833 57.7401 103.616C67.6866 99.4544 67.8723 83.2835 58.0376 77.6315C54.1642 75.4055 47.5928 75.5714 43.6215 77.9964ZM79.828 77.8624C74.1103 81.3984 72.8381 83.6735 72.8381 90.3565C72.8381 94.9295 73.3494 97.1965 74.8352 99.2185C80.3962 106.783 93.1217 106.794 98.7336 99.2395C101.609 95.3675 101.926 87.3274 99.3646 83.2424C95.1118 76.4604 86.1049 73.9794 79.828 77.8624ZM114.873 78.0044C105.573 83.9574 105.824 98.4574 115.311 103.249C128.302 109.812 141.924 96.8354 135.495 84.0214C131.787 76.6284 121.644 73.6694 114.873 78.0044ZM150.418 78.0254C147.079 80.0644 143.28 86.7045 143.28 90.5014C143.28 91.6014 144.143 94.4045 145.197 96.7305C150.179 107.721 165.575 107.889 171.343 97.0174C174.832 90.4424 172.711 82.7004 166.204 78.2514C161.938 75.3354 154.986 75.2364 150.418 78.0254ZM186.072 78.2714C182.16 80.8884 179.187 86.1694 179.187 90.5014C179.187 98.2534 186.114 105.004 194.06 104.997C200.319 104.992 204.771 102.106 207.28 96.4255C209.499 91.4025 209.174 87.5574 206.106 82.5014C202.114 75.9214 192.589 73.9104 186.072 78.2714ZM222.362 77.9964C209.932 85.5854 215.032 104.983 229.46 104.997C238.081 105.006 244.256 98.9275 244.256 90.4324C244.256 79.2574 231.843 72.2064 222.362 77.9964ZM257.931 78.4494C249.369 84.2755 249.608 97.6935 258.368 103.041C265.458 107.371 275.54 104.451 279.287 96.9815C285.965 83.6705 270.272 70.0514 257.931 78.4494ZM11.0468 115.004C1.66542 117.919 -2.3857 129.81 3.28607 137.786C11.4372 149.25 29.7856 143.167 29.7856 129.001C29.7856 119.193 20.3204 112.123 11.0468 115.004ZM44.4154 116.251C38.7007 119.185 36.1234 123.836 36.6786 130.209C38.3282 149.15 65.362 147.822 65.345 128.801C65.34 123.015 62.3414 118.352 57.09 115.965C51.6249 113.48 49.7277 113.523 44.4154 116.251ZM82.8236 114.704C70.2419 118.049 68.5973 136.338 80.3472 142.249C93.3344 148.784 106.874 133.774 99.2029 121.345C96.1014 116.318 88.4375 113.211 82.8236 114.704ZM117.606 115.067C108.197 117.888 104.877 131.783 111.867 139.09C123.758 151.52 143.562 137.028 135.154 122.047C131.73 115.947 124.399 113.031 117.606 115.067ZM153.825 115.008C147.226 117.057 142.427 124.872 143.676 131.537C144.895 138.041 152.124 144.001 158.795 144.001C166.398 144.001 174.073 134.825 172.839 127.21C171.406 118.365 162.149 112.424 153.825 115.008ZM189.787 115.004C184.09 116.775 179.184 123.273 179.184 129.05C179.184 137.198 185.577 143.501 193.84 143.501C202.457 143.501 208.526 137.509 208.526 129.001C208.526 119.193 199.061 112.123 189.787 115.004ZM225.432 115.103C215.617 117.947 211.98 130.908 218.739 138.954C226.011 147.607 240.81 143.932 243.906 132.704C245.893 125.5 241.252 116.972 234.29 115.036C230.058 113.859 229.715 113.862 225.432 115.103ZM186.766 154.376C176.438 160.637 177.039 174.846 187.853 180.089C202.362 187.123 216.033 167.869 204.413 156.767C198.918 151.517 192.841 150.694 186.766 154.376Z" fill="black"/>
</svg>
